<svg xmlns="http://www.w3.org/2000/svg" viewBox="0 0 595.28 403.53"><defs><style>.cls-1{fill:#604f3b;}.cls-2,.cls-5{fill:#f16668;}.cls-3{fill:#768951;}.cls-4,.cls-8{fill:none;stroke:#231f20;}.cls-4,.cls-5,.cls-8{stroke-miterlimit:10;}.cls-4{stroke-width:0.7px;}.cls-5{stroke:#fff;}.cls-6{fill:#cec77f;}.cls-7{fill:#fff;}.cls-8{stroke-width:0.1px;}</style></defs><g id="Layer_1" data-name="Layer 1"><path class="cls-1" d="M445.62,81.48c17.8,7.42,35.31,38,35.31,38s-37.6-24.18-69.82-20a254.29,254.29,0,0,0-57.44,14.59l-5.93-23.73S427.82,74.07,445.62,81.48Z"/><path class="cls-2" d="M397.62,186.27c29.22,0,37.24,15.53,83.31,7.69-38.77,6.91-89.64,46.76-129.37,47.53S271.63,225,271.63,225s-34.5,12.78-49.29,18.38c-41.57,15.73-93.26-3.38-107.86-32.59s-5.62-87.64,25.84-91,57.3,24.72,57.3,24.72L183,164.72S142.57,153.49,151.56,194C158.72,226.2,213.35,222,213.35,222h0a465.51,465.51,0,0,1,51.07-15.72c23.87-5.88,22-10.32,36-12.34,13.1-1.9,31.44,3.87,44.34,3.45C358.14,197,371.78,186.27,397.62,186.27Z"/><path d="M395.56,164.74c1.54-13,11.94-26,9.93-18a76.89,76.89,0,0,1-10.07,22.42A24.43,24.43,0,0,1,395.56,164.74Z"/><path class="cls-3" d="M395.38,164.72l.18,0a24.43,24.43,0,0,0-.14,4.43c-5.89,8.88-13.95,16.39-23.64,17.1-14.43,1.06-18.72-25.05-9.39-35.39v0a12.25,12.25,0,0,1,9.38-4.11,26.17,26.17,0,0,1,11.1,2.25,21.34,21.34,0,0,1,7.08,5.28A24.17,24.17,0,0,1,395.38,164.72Zm-16.86,1.79a5.74,5.74,0,1,0-5.74,5.74A5.75,5.75,0,0,0,378.52,166.51Z"/><path d="M372.78,160.76a5.75,5.75,0,1,1-5.74,5.75A5.75,5.75,0,0,1,372.78,160.76Z"/><path d="M339,164.71c3.18,7,5.66,14.49,4.71,19.55C342.32,191.53,337.61,177.66,339,164.71Z"/><path class="cls-1" d="M311.41,91.12V119.5s-46.28-16.3-66-14.19a156,156,0,0,0-17.37,3.14,3.62,3.62,0,0,0-2.34-1c-1,0-1.85.79-2.69,2.21-17.31,4.25-34.7,9.87-34.7,9.87s35.16-28.38,50.58-32.09S311.41,91.12,311.41,91.12Z"/><path d="M303,162.08c-.9-8.33-.2-15.33,2.47-15.33,5.55,0,3.47,20.21,1.27,31.78A70.74,70.74,0,0,1,303,162.08Z"/><path class="cls-3" d="M306.69,178.53s0,0,0,0c-.43,2.34-.88,4.33-1.27,5.72-2.32,8.31-15.66,14.17-30.27,5.18-8.19-5-8.26-15.74-4.55-24.15a26.54,26.54,0,0,1,3.87-6.33c2.76-3.31,6.17-5.47,9.67-5.47a21.15,21.15,0,0,1,5.7.79,27.74,27.74,0,0,1,8,3.7,37.87,37.87,0,0,1,5.14,4.1A70.74,70.74,0,0,0,306.69,178.53Zm-14.21-2.32a5.86,5.86,0,1,0-5.85,5.85A5.85,5.85,0,0,0,292.48,176.21Z"/><path d="M286.63,170.35a5.86,5.86,0,1,1-5.86,5.86A5.85,5.85,0,0,1,286.63,170.35Z"/><path d="M228.05,108.45c6.07,5.2,12,29.54,10,57.4a82.43,82.43,0,0,1-4.53,21.25c-6.21-7.36-11.19-15.6-13.45-22.38-4.82-14.49-2.18-46.43,2.93-55.09C224.7,109.22,226.39,108.82,228.05,108.45Z"/><path class="cls-4" d="M213.37,222a113.1,113.1,0,0,0,20.17-34.92,82.43,82.43,0,0,0,4.53-21.25c2-27.86-3.95-52.2-10-57.4a3.62,3.62,0,0,0-2.34-1c-1,0-1.85.79-2.69,2.21-5.11,8.66-7.75,40.6-2.93,55.09,2.26,6.78,7.24,15,13.45,22.38,9.22,10.91,21.14,19.87,30.9,19.2"/><path class="cls-4" d="M306.69,178.54c2.42,6.5,5.84,11.28,10,10.9"/><path class="cls-4" d="M306.69,178.53c2.2-11.57,4.28-31.78-1.27-31.78-2.67,0-3.37,7-2.47,15.33a70.74,70.74,0,0,0,3.74,16.45"/><path class="cls-4" d="M306.69,178.53s0,0,0,0"/><path class="cls-4" d="M305.42,164.72a29.81,29.81,0,0,0-2.47-2.64,37.87,37.87,0,0,0-5.14-4.1,27.74,27.74,0,0,0-8-3.7,21.15,21.15,0,0,0-5.7-.79c-3.5,0-6.91,2.16-9.67,5.47a26.54,26.54,0,0,0-3.87,6.33"/><path class="cls-4" d="M339,164.71c.88-8.3,4.25-16.21,12.58-18"/><path class="cls-4" d="M339,164.71c3.18,7,5.66,14.49,4.71,19.55C342.32,191.53,337.61,177.66,339,164.71Z"/><path class="cls-4" d="M329.08,146.75a150.77,150.77,0,0,1,9.9,18"/><path class="cls-4" d="M395.42,169.17a76.89,76.89,0,0,0,10.07-22.42c2-8.05-8.39,5-9.93,18a24.43,24.43,0,0,0-.14,4.43c.43,7.08,4.42,13.36,15.69,15.09"/><path class="cls-4" d="M395.38,164.72A24.17,24.17,0,0,0,390,154.28a21.34,21.34,0,0,0-7.08-5.28,26.17,26.17,0,0,0-11.1-2.25,12.25,12.25,0,0,0-9.38,4.11"/><path class="cls-4" d="M292.48,176.21a5.86,5.86,0,1,1-5.85-5.86A5.85,5.85,0,0,1,292.48,176.21Z"/><path class="cls-4" d="M378.52,166.51a5.74,5.74,0,1,1-5.74-5.75A5.74,5.74,0,0,1,378.52,166.51Z"/><path class="cls-4" d="M283.72,217.76c13.85,1.17,28.84-6.16,37.87-5.54,15.44,1.07,20.67,5.3,29.55,4,4.38-.65,19.49-8.61,33.13-9.85,14.08-1.28,31.46,1.86,39.34-2.64"/><path class="cls-4" d="M270.6,165.29s-16.47-8-10.93-26.81"/><path class="cls-4" d="M274.47,159s-6.19-7.54-3.87-16.16"/><path class="cls-4" d="M284.14,153.49s-7.84-7.61-3.37-15"/><path class="cls-4" d="M289.84,154.28s-3.42-9.94,0-17.34"/><path class="cls-4" d="M297.81,158s-4.07-11.8,0-18"/><path class="cls-4" d="M390,154.28s7.09-8.4,5.55-17.34"/><path class="cls-4" d="M382.88,149s7.39-10.52,4.93-16.68"/><path class="cls-4" d="M371.78,146.75s5.86-4.26,4-14.43"/><path class="cls-4" d="M362.39,150.88v0a29,29,0,0,0,3.06-18.54"/><path class="cls-4" d="M353.67,114.11l-5.93-23.73s80.08-16.31,97.88-8.9,35.31,38,35.31,38-37.6-24.18-69.82-20A254.29,254.29,0,0,0,353.67,114.11Z"/><path class="cls-4" d="M223,109.63c-17.31,4.25-34.7,9.87-34.7,9.87s35.16-28.38,50.58-32.09,72.51,3.71,72.51,3.71V119.5s-46.28-16.3-66-14.19a156,156,0,0,0-17.37,3.14C226.39,108.82,224.7,109.22,223,109.63Z"/><g id="X3LiuS"><path class="cls-5" d="M424.65,242.17c4,8.48,8,17,12.1,25.43a4.76,4.76,0,0,1-.87,6,33.23,33.23,0,0,1-12.51,8.32,32.47,32.47,0,0,1-6.81,1.76,20.76,20.76,0,0,1-5.16-.1,4.25,4.25,0,0,1-3.62-2.68c-3.91-8.38-7.91-16.71-11.89-25-.82-1.74-1.64-3.48-2.52-5.2a17.53,17.53,0,0,1-1.44-11.12c1.18-7.06,3-14,6.89-20.07a29,29,0,0,1,4.5-5.59c3.35-3.18,6.64-2.46,8.69,1.69,1.18,2.37,2.28,4.78,3.42,7.17Q420,232.46,424.65,242.17Z"/><path d="M469.19,320.25c3.78,8,7.41,16,11.37,23.87s1.84,14.26-3.46,19.11c-6.84,6.27-14.8,10.18-24.35,9.92-6.59-.19-11.44-3.11-14.31-9.22-5.77-12.3-11.62-24.55-17.44-36.82-2.21-4.66-4.39-9.33-6.63-14-.69-1.45-1-2.85.09-4.19s2.48-1.4,4.07-1c12.27,2.89,21.82-1.79,29.8-10.77.89-1,1.67-2.11,2.48-3.19,1.92-2.55,4.78-2.32,6.17.58,3.15,6.55,6.25,13.13,9.36,19.7Zm-46.26-4.89a9.5,9.5,0,0,0,.35.94q10.64,22.45,21.28,44.92a8.76,8.76,0,0,0,7.44,5.16c4.55.56,8.66-.77,12.66-2.68a25.08,25.08,0,0,0,9.38-7,7.56,7.56,0,0,0,.94-8.51q-10.68-22.44-21.29-44.91c-.17-.37-.4-.72-.64-1.15C444.78,310.66,435.39,316.38,422.93,315.36Z"/><path d="M446.54,280.22c.7,1.48,1.33,3,2.12,4.43a7.81,7.81,0,0,1,.06,7.49,26.61,26.61,0,0,1-14.54,13.35,23.35,23.35,0,0,1-15.55,1,11.13,11.13,0,0,1-7.36-6.23q-2.28-4.92-4.64-9.79a3.48,3.48,0,0,1,.1-3.82,3.39,3.39,0,0,1,3.56-1.34,27.5,27.5,0,0,0,14.88-1.61,33.61,33.61,0,0,0,12.7-9.29c1.29-1.54,2.74-2.16,4.13-1.48a4.71,4.71,0,0,1,1.9,1.83C444.88,276.52,445.67,278.39,446.54,280.22ZM415,292.41a42.22,42.22,0,0,1,1.79,3.84c1.08,3.13,3.48,4.14,6.48,4.32a19.42,19.42,0,0,0,11.7-2.91,20.71,20.71,0,0,0,7.13-7.19,3.56,3.56,0,0,0,.62-2.52A62.55,62.55,0,0,0,440,282C432.84,288.28,424.9,292.33,415,292.41Z"/><path class="cls-6" d="M422.93,315.36c12.46,1,21.85-4.7,30.12-13.26.24.43.47.78.64,1.15q10.65,22.46,21.29,44.91a7.56,7.56,0,0,1-.94,8.51,25.08,25.08,0,0,1-9.38,7c-4,1.91-8.11,3.24-12.66,2.68a8.76,8.76,0,0,1-7.44-5.16Q434,338.75,423.28,316.3A9.5,9.5,0,0,1,422.93,315.36Z"/><path class="cls-7" d="M415,292.41c9.9-.08,17.84-4.13,25-10.39a62.55,62.55,0,0,1,2.72,5.93,3.56,3.56,0,0,1-.62,2.52,20.71,20.71,0,0,1-7.13,7.19,19.42,19.42,0,0,1-11.7,2.91c-3-.18-5.4-1.19-6.48-4.32A42.22,42.22,0,0,0,415,292.41Z"/></g><path class="cls-1" d="M434,324.32c-.12-2.45,2.44-6.12,2.44-6.12s-.73,5.63,1.51,9.11a32.47,32.47,0,0,0,4.8,5.8l-2.4,2S434.1,326.77,434,324.32Z"/><path class="cls-2" d="M448.64,324.13c-1.59-3.36-.24-5.12-3.65-10,2.9,4.08,10.25,7.75,12.51,12.28A28.27,28.27,0,0,1,460,336.5s3.35,3.27,4.8,4.66c4.07,3.92,4.69,10.9,2.13,14.17s-9.76,5.42-11.86,2-.28-7.93-.28-7.93l3.11.57s.92,5.26,5.08,2c3.31-2.57-.14-8.62-.14-8.62h0a58.81,58.81,0,0,1-4.58-5c-2-2.42-2.39-2-3.38-3.47s-1.27-3.82-2-5.28S450.05,327.1,448.64,324.13Z"/><path d="M443.67,325.38a9.7,9.7,0,0,1,3.13-.06,3,3,0,0,1-.52.22C444.71,326.07,442.64,325.59,443.67,325.38Z"/><path class="cls-3" d="M446.29,325.56v0a3,3,0,0,0,.52-.22,4.28,4.28,0,0,1,3.25,1.78c.91,1.6-1.86,3.52-3.56,3h0a1.56,1.56,0,0,1-1-.86,3.31,3.31,0,0,1-.35-1.4,2.83,2.83,0,0,1,.22-1.1A3.09,3.09,0,0,1,446.29,325.56Zm1.12,1.84a.73.73,0,1,0,.63,1.32.72.72,0,0,0,.34-1A.73.73,0,0,0,447.41,327.4Z"/><circle cx="447.72" cy="328.06" r="0.73"/><path d="M449.36,332a4.84,4.84,0,0,1,2-1.6C452.26,330.2,450.92,331.5,449.36,332Z"/><path class="cls-1" d="M442.41,339.22l3.26-1.55s.64,6.21,2,8.36a19.06,19.06,0,0,0,1.31,1.82.41.41,0,0,0,0,.33c.05.11.19.17.4.19,1.43,1.75,3,3.45,3,3.45s-5.18-2.5-6.44-4.07S442.41,339.22,442.41,339.22Z"/><path d="M451,336.33c-.91.55-1.75.85-1.9.55-.3-.64,2.14-1.5,3.59-1.88A9.53,9.53,0,0,1,451,336.33Z"/><path class="cls-3" d="M452.71,335h0c.29-.08.54-.13.72-.17,1.08-.18,2.48,1,2.25,3.2a2.37,2.37,0,0,1-2.53,1.84,3.57,3.57,0,0,1-.94-.1,1.68,1.68,0,0,1-1.15-.81,2.7,2.7,0,0,1-.22-.7,3.52,3.52,0,0,1,0-1.12h0a4.22,4.22,0,0,1,.19-.81A9.53,9.53,0,0,0,452.71,335Zm.5,1.76a.74.74,0,0,0-.35,1,.74.74,0,1,0,1.34-.64A.74.74,0,0,0,453.21,336.76Z"/><path d="M452.86,337.75a.74.74,0,0,1,1.34-.64.74.74,0,1,1-1.34.64Z"/><path d="M448.94,347.85c.26-1,2.73-3,6.05-4.27a10.24,10.24,0,0,1,2.68-.64,9.39,9.39,0,0,1-1.83,2.76c-1.41,1.35-5.22,2.78-6.49,2.67Z"/><path class="cls-8" d="M462.78,343.35a14.6,14.6,0,0,0-5.11-.41,10.24,10.24,0,0,0-2.68.64c-3.32,1.29-5.79,3.29-6.05,4.27a.41.41,0,0,0,0,.33c.05.11.19.17.4.19,1.27.11,5.08-1.32,6.49-2.67a9.39,9.39,0,0,0,1.83-2.76c.76-1.66,1.14-3.51.53-4.6"/><path class="cls-8" d="M452.71,335c.61-.63,1-1.29.7-1.75"/><path class="cls-8" d="M452.71,335c-1.45.38-3.89,1.24-3.59,1.88.15.3,1,0,1.9-.55a9.53,9.53,0,0,0,1.69-1.33"/><line class="cls-8" x1="452.71" y1="335" x2="452.71" y2="335"/><path class="cls-8" d="M450.83,337.14a3.52,3.52,0,0,0,0,1.12,2.7,2.7,0,0,0,.22.7,1.68,1.68,0,0,0,1.15.81,3.57,3.57,0,0,0,.94.1"/><path class="cls-8" d="M451.19,335.9a3.61,3.61,0,0,0-.17.43,4.22,4.22,0,0,0-.19.81"/><path class="cls-8" d="M449.36,332a2.31,2.31,0,0,1-2.75-.46"/><path class="cls-8" d="M449.36,332a4.84,4.84,0,0,1,2-1.6C452.26,330.2,450.92,331.5,449.36,332Z"/><path class="cls-8" d="M447.83,334.16a18.38,18.38,0,0,1,1.53-2.12"/><path class="cls-8" d="M446.8,325.32a9.7,9.7,0,0,0-3.13.06c-1,.21,1,.69,2.61.16a3,3,0,0,0,.52-.22,2,2,0,0,0,.88-2.63"/><path class="cls-8" d="M446.29,325.56a3.09,3.09,0,0,0-.91,1.19,2.83,2.83,0,0,0-.22,1.1,3.31,3.31,0,0,0,.35,1.4,1.56,1.56,0,0,0,1,.86"/><path class="cls-8" d="M453.21,336.76a.74.74,0,0,1,1,.35.74.74,0,1,1-1.34.64A.74.74,0,0,1,453.21,336.76Z"/><circle class="cls-8" cx="447.72" cy="328.06" r="0.73"/><path class="cls-8" d="M458.46,335.5c-.62-1.65-2.27-3-2.69-4.05-.72-1.83-.52-2.66-1.16-3.61a23.56,23.56,0,0,1-2.93-3.27c-.92-1.55-1.5-3.71-2.45-4.37"/><path class="cls-8" d="M453.15,339.87a2.82,2.82,0,0,1-2.49,2.71"/><path class="cls-8" d="M452.21,339.77a2.52,2.52,0,0,1-1.64,1.32"/><path class="cls-8" d="M451.06,339s-.45,1.31-1.54,1.2"/><path class="cls-8" d="M450.84,338.26a3.46,3.46,0,0,1-2,.94"/><path class="cls-8" d="M450.83,337.14h0c-.05.05-1.15,1.11-2.07,1"/><path class="cls-8" d="M445.38,326.75a3.12,3.12,0,0,0-2.29.31"/><path class="cls-8" d="M445.16,327.85s-1.61-.27-2.18.35"/><path class="cls-8" d="M445.51,329.25a1.82,1.82,0,0,0-1.88.33"/><path class="cls-8" d="M446.49,330.11h0a3.61,3.61,0,0,0-2.29.65"/><path class="cls-8" d="M442.74,333.11l-2.4,2s-6.24-8.31-6.35-10.76,2.44-6.12,2.44-6.12-.73,5.63,1.51,9.11A32.47,32.47,0,0,0,442.74,333.11Z"/><path class="cls-8" d="M449.35,348.37c1.43,1.75,3,3.45,3,3.45s-5.18-2.5-6.44-4.07-3.52-8.53-3.52-8.53l3.26-1.55s.64,6.21,2,8.36a19.06,19.06,0,0,0,1.31,1.82Z"/></g></svg>